<?xml version="1.0" encoding="utf-8"?>
<!-- Generator: Adobe Illustrator 19.1.0, SVG Export Plug-In . SVG Version: 6.00 Build 0)  -->
<svg version="1.1" id="Layer_1" xmlns="http://www.w3.org/2000/svg" xmlns:xlink="http://www.w3.org/1999/xlink" x="0px" y="0px"
	 viewBox="-581 367 59.9 60" style="enable-background:new -581 367 59.9 60;" xml:space="preserve">
<style type="text/css">
	.st0{fill:#FFFFFF;}
</style>
<g>
	<path class="st0" d="M-560.3,394.4c0.4,0,0.7,0,1.1,0c0.5-0.1,1-0.2,1.5-0.4c0.5-0.2,0.9-0.6,1.1-1c0.3-0.7,0.3-1.5,0.1-2.2
		c-0.2-0.8-0.7-1.2-1.4-1.5c-0.8-0.2-1.6-0.3-2.4-0.3c-1.6,0-3.2,0-4.8,0c0,0-0.1,0-0.1,0c0,1.8,0,3.6,0,5.5c0,0,0.1,0,0.1,0
		C-563.6,394.4-561.9,394.4-560.3,394.4z"/>
	<path class="st0" d="M-536.1,397c-0.3-1.2-1.1-2.1-2.2-2.6c-0.8-0.3-1.7-0.4-2.6-0.2c-0.8,0.1-1.5,0.5-2,1.1
		c-0.5,0.5-0.7,1.1-0.9,1.8c-0.1,0.2-0.1,0.5-0.2,0.8c2.7,0,5.4,0,8,0c0,0,0-0.1,0-0.1C-535.9,397.6-536,397.3-536.1,397z"/>
	<path class="st0" d="M-556.4,399.8c-0.4-0.5-0.9-0.9-1.5-1.1c-0.6-0.2-1.2-0.3-1.9-0.3c-1.8,0-3.7,0-5.5,0c0,0,0,0-0.1,0
		c0,2.2,0,4.4,0,6.6c0,0,0,0,0.1,0c1.8,0,3.7,0,5.5,0c0.6,0,1.2-0.1,1.7-0.2c0.9-0.3,1.6-0.9,1.9-1.8c0.2-0.7,0.3-1.4,0.2-2
		C-556,400.6-556.2,400.2-556.4,399.8z"/>
	<path class="st0" d="M-524.3,391c-2.3-10.9-11.5-19.5-22.5-21.1c-1-0.2-1.9-0.3-2.9-0.4h-2.7c-0.9,0.1-1.9,0.2-2.8,0.4
		c-11.9,1.8-21.3,11.3-23,23.3c-2.1,14.7,7.9,28.4,22.3,30.9c1.1,0.2,2.2,0.3,3.3,0.4h2.7c1-0.1,1.9-0.3,2.9-0.4
		c11.6-1.7,21.1-11,22.9-22.5c0.2-0.8,0.2-1.6,0.4-2.4v-4.4C-523.9,393.5-524,392.3-524.3,391z M-550.9,403.7
		c-0.2,0.8-0.5,1.6-1,2.4c-0.8,1.3-2,2.2-3.4,2.8c-0.7,0.3-1.5,0.4-2.2,0.5c-0.8,0.1-1.7,0.1-2.5,0.1c-3.7,0-7.4,0-11.1,0
		c0-8.3,0-16.6,0-24.9c4.1,0,8.2,0,12.3,0c0,0,0,0,0.1,0c0.4,0,0.9,0.1,1.3,0.1c0.8,0.1,1.7,0.3,2.4,0.7c1.7,0.8,2.9,2.1,3.3,4
		c0.3,1.1,0.3,2.2,0,3.3c-0.2,0.8-0.5,1.6-1.1,2.2c-0.4,0.5-0.9,0.8-1.5,1.1c-0.1,0-0.2,0.1-0.3,0.1c0.2,0.1,0.5,0.2,0.7,0.3
		c1.4,0.7,2.3,1.7,2.8,3.2c0.2,0.6,0.3,1.2,0.3,1.8C-550.7,402.1-550.7,402.9-550.9,403.7z M-545,385.6c3.3,0,6.7,0,10,0
		c0,0.8,0,1.6,0,2.5c-3.3,0-6.7,0-10,0C-545,387.2-545,386.4-545,385.6z M-531.1,401.1c-4.3,0-8.7,0-13,0c0,0.1,0,0.2,0,0.3
		c0,0.6,0.1,1.1,0.3,1.6c0.4,1.1,1.2,1.9,2.4,2.3c0.7,0.2,1.4,0.3,2.2,0.2c0.6,0,1.1-0.2,1.6-0.5c0.6-0.3,1.1-0.8,1.4-1.4
		c0.1-0.1,0.1-0.1,0.2-0.1c1.5,0,3,0,4.5,0c0,0,0.1,0,0.1,0c0,0.1,0,0.3-0.1,0.4c-0.1,0.7-0.4,1.2-0.8,1.8c-0.8,1.1-1.7,2-2.8,2.6
		c-0.8,0.4-1.7,0.7-2.6,0.9c-0.9,0.2-1.9,0.2-2.8,0.2c-2.2-0.1-4.1-0.9-5.8-2.3c-0.8-0.7-1.4-1.5-1.8-2.5c-0.3-0.8-0.5-1.6-0.7-2.5
		c-0.1-0.9-0.2-1.8-0.1-2.7c0-1.1,0.2-2.2,0.6-3.3c0.8-2.3,2.3-4,4.5-4.9c0.8-0.4,1.7-0.5,2.6-0.6c1.2-0.1,2.3-0.1,3.4,0.2
		c1.2,0.2,2.2,0.7,3.2,1.4c0.9,0.6,1.5,1.4,2.1,2.3c0.6,0.9,0.9,1.9,1.1,3c0.1,0.6,0.1,1.2,0.2,1.7
		C-531.1,399.7-531.1,400.3-531.1,401.1C-531.1,401-531.1,401-531.1,401.1z"/>
</g>
</svg>
