<?xml version="1.0" encoding="utf-8"?>
<!-- Generator: Adobe Illustrator 19.1.0, SVG Export Plug-In . SVG Version: 6.00 Build 0)  -->
<svg version="1.1" id="Layer_1" xmlns="http://www.w3.org/2000/svg" xmlns:xlink="http://www.w3.org/1999/xlink" x="0px" y="0px"
	 viewBox="0 0 150 150" style="enable-background:new 0 0 150 150;" xml:space="preserve">
<style type="text/css">
	.st0{fill:#FFFFFF;}
</style>
<path class="st0" d="M134.3,66l-13.8,13.8c3.5,11,1,22.3-8.2,31.5c-10.4,10.4-29.6,15.5-44.2,2.1l59-59
	c-9.2-11.1-21.4-18.1-35.3-19.7L73.3,12l-8.9,27.5c-5,2.4-9.9,5.9-14.1,10.1c-6.4,6.4-10.6,13.9-13.1,21.8L11.5,84.8l25.6,14.3
	c2.3,8.7,7,16.9,13.6,23.5c18.3,18.3,50.3,22.5,72.9,0c7-7,12-15.7,13.8-25.4C139.5,87.4,138.6,76.8,134.3,66z M61.7,61
	c12.9-13.4,32.2-12.2,42-3.7L58,102.9C49.3,92.8,48.3,74.4,61.7,61z"/>
</svg>
