<?xml version="1.0" encoding="utf-8"?>
<!-- Generator: Adobe Illustrator 19.1.0, SVG Export Plug-In . SVG Version: 6.00 Build 0)  -->
<svg version="1.1" id="Layer_1" xmlns="http://www.w3.org/2000/svg" xmlns:xlink="http://www.w3.org/1999/xlink" x="0px" y="0px"
	 viewBox="0 0 500 111.7" style="enable-background:new 0 0 500 111.7;" xml:space="preserve">
<style type="text/css">
	.st0{fill:#FFFFFF;}
</style>
<path class="st0" d="M144.3,32.9h12.3V43c3.9-8.1,11.1-11.9,20.4-12V44h-0.9c-12.3,0-18.7,6.8-18.7,20.4v37h-13.1V32.9z"/>
<path class="st0" d="M187.3,32.9h12.3v10.6c3.3-7.1,11-12.7,23.2-12.6c22,0.3,27.7,16.1,27.7,30.3v40.2h-13.2V64.3
	c0-12.3-4.8-21.2-18.2-21.1c-12.8,0.1-18.7,8.2-18.7,20v38.2h-13.1L187.3,32.9L187.3,32.9z"/>
<path class="st0" d="M332.4,77.4c-4.2,14.9-17.7,26-34.8,26c-22.4,0-36.6-17.3-36.6-36.2c0-20.3,15.4-36.2,36-36.2
	c16.3,0,31.1,10.1,35.4,26.6h-13.5c-3.5-9.2-12-14.4-21.5-14.4c-6.9-0.1-11.9,2.1-16.7,6.7c-4.1,4.1-6.7,10.5-6.7,17.4
	c0,14.1,10.3,24.1,23.4,24.1c11.5-0.1,18.7-7.1,21.5-13.9L332.4,77.4z"/>
<path class="st0" d="M414.9,101.4h-13.1V89.5c-4.8,9.2-14.6,14-25.5,14c-22-0.1-35.1-17.3-35.1-36.4c0-20.9,15.3-36.2,35.2-36.2
	c13.6,0,22.2,7.6,25.5,14.1V33h13.1v68.4H414.9z M354.4,67.4c0.1,10.2,7.3,23.8,23.9,23.8c10.5,0,17.9-5.8,21.3-13.6
	c1.6-3.1,2.2-6.7,2.4-10.2c0.1-3.5-0.5-7.1-2-10.2c-3.3-8-11-14.1-22-14.1C363.7,43.1,354.4,54.5,354.4,67.4L354.4,67.4z"/>
<path class="st0" d="M437.2,43.1h-12.3V32.9h12.3V8.2h13.1v24.7h13.2v10.2h-13.2v58.3h-13.1V43.1z"/>
<path class="st0" d="M128.8,49.4l-10.3,10.3c2.6,8.2,0.8,16.7-6.1,23.7C104.4,91.2,90,95,79,84.9l44.3-44.3
	c-6.9-8.4-16.1-13.6-26.6-14.8L83,8.8l-6.7,20.7c-3.8,1.8-7.5,4.4-10.6,7.6c-4.8,4.8-8,10.5-9.8,16.3L36.5,63.5l19.2,10.7
	C57.5,80.8,61,86.9,66,91.9c13.7,13.7,37.8,16.9,54.8,0c5.2-5.2,9-11.8,10.3-19.1C132.7,65.4,132,57.5,128.8,49.4z M74.2,45.6
	c9.7-10.1,24.2-9.2,31.5-2.7L71.5,77.1C64.9,69.5,64.1,55.6,74.2,45.6z"/>
</svg>
