<?xml version="1.0" encoding="utf-8"?>
<!-- Generator: Adobe Illustrator 19.1.0, SVG Export Plug-In . SVG Version: 6.00 Build 0)  -->
<svg version="1.1" id="Layer_1" xmlns="http://www.w3.org/2000/svg" xmlns:xlink="http://www.w3.org/1999/xlink" x="0px" y="0px"
	 viewBox="0 0 59.9 60" style="enable-background:new 0 0 59.9 60;" xml:space="preserve">
<style type="text/css">
	.st0{fill:#FFFFFF;}
</style>
<path class="st0" d="M28.6,2.5c0.9,0,1.8,0,2.7,0c1,0.1,1.9,0.2,2.9,0.4C45.2,4.5,54.4,13.1,56.7,24c0.3,1.3,0.4,2.5,0.6,3.8
	c0,1.5,0,2.9,0,4.4c-0.2,0.8-0.2,1.6-0.4,2.4c-1.8,11.5-11.3,20.8-22.9,22.5c-1,0.1-1.9,0.3-2.9,0.4c-0.9,0-1.8,0-2.7,0
	c-1.1-0.1-2.2-0.2-3.3-0.4C10.7,54.6,0.7,40.9,2.8,26.2c1.7-12,11.1-21.5,23-23.3C26.7,2.7,27.7,2.6,28.6,2.5z M25.6,30
	c0,5.9,0,11.8,0,17.6c2.4,0,4.7,0,7.1,0c0-5.9,0-11.8,0-17.7c1.7,0,3.3,0,4.9,0c0.2-2,0.3-3.9,0.5-5.9c-1.8,0-3.6,0-5.4,0
	c0-1.4,0-2.8,0-4.2c0-0.7,0.4-1.1,1.1-1.2c0.6-0.1,1.2,0,1.7-0.1c0.8,0,1.7,0,2.5,0c0-2.1,0-4.1,0-6.1c-2.5,0.1-5-0.2-7.5,0.2
	c-2.5,0.5-4.2,1.8-4.8,4.4c-0.2,0.7-0.2,1.4-0.2,2.2c0,1.5,0,3.1,0,4.7c-1.3,0-2.5,0-3.7,0c0,2,0,4,0,6C23.1,30,24.3,30,25.6,30z"/>
</svg>
