<?xml version="1.0" encoding="utf-8"?>
<!-- Generator: Adobe Illustrator 19.1.0, SVG Export Plug-In . SVG Version: 6.00 Build 0)  -->
<svg version="1.1" id="Layer_1" xmlns="http://www.w3.org/2000/svg" xmlns:xlink="http://www.w3.org/1999/xlink" x="0px" y="0px"
	 viewBox="0 0 59.9 60" style="enable-background:new 0 0 59.9 60;" xml:space="preserve">
<style type="text/css">
	.st0{fill:#FFFFFF;}
</style>
<g id="nQFLMz.tif">
	<g>
		<path class="st0" d="M57.1,28.6c0,0.9,0,1.9,0,2.8c-0.2,0.4-0.1,0.9-0.2,1.3C56.3,39,53.8,44.5,49.3,49c-4,4.1-8.9,6.7-14.6,7.7
			c-1.2,0.2-2.5,0.3-3.8,0.5c-0.7,0-1.4,0-2.1,0c-0.7-0.1-1.4-0.1-2.1-0.2c-5.8-0.7-10.9-3-15.1-6.9C4.4,43.3,1.6,35,3.2,25.3
			C5,14.2,13.9,5.2,25,3.3C26.3,3,27.7,3,29.1,2.8c0.6,0,1.1,0,1.7,0c0.2,0.1,0.5,0.1,0.8,0.1c4.1,0.2,8,1.3,11.5,3.4
			c7.4,4.3,11.9,10.6,13.5,18.9C56.9,26.3,56.9,27.5,57.1,28.6z M29.8,15.6c-2.9,0-5.9,0-8.8,0c-3.6,0-6,2.4-6,6
			c0,5.9,0,11.7,0,17.6c0,3.5,2.5,6,5.9,6c5.9,0,11.7,0,17.6,0c3.6,0,6.1-2.4,6.1-6c0-5.8,0-11.7,0-17.5c0-0.5,0-1.1-0.2-1.6
			c-0.6-2.7-2.8-4.4-5.8-4.4C35.7,15.6,32.7,15.6,29.8,15.6z"/>
		<path class="st0" d="M22.2,27.4c-1.2,4.1-0.3,7.5,3.3,9.8c2.8,1.8,5.7,1.8,8.5,0c3.6-2.4,4.5-5.8,3.3-9.8c1.4,0,2.8,0,4.2,0
			c0.2,0.2,0.1,0.4,0.1,0.6c0,3.7,0,7.5,0,11.2c0,2-1.1,3.1-3.2,3.1c-5.8,0-11.6,0-17.4,0c-2,0-3.2-1.1-3.2-3.1c0-3.7,0-7.4,0-11.1
			c0-0.2,0-0.4,0-0.6C19.4,27.4,20.8,27.4,22.2,27.4z"/>
		<path class="st0" d="M29.8,35.6c-2.9,0-5.2-2.3-5.2-5.2c0-2.8,2.4-5.2,5.2-5.2c2.9,0,5.2,2.4,5.2,5.2C35,33.3,32.6,35.6,29.8,35.6
			z"/>
		<path class="st0" d="M36.2,19.1c1.6,0,3.3,0,4.9,0c0,1.6,0,3.3,0,4.9c-1.6,0-3.3,0-4.9,0C36.2,22.4,36.2,20.8,36.2,19.1z"/>
	</g>
</g>
</svg>
