<?xml version="1.0" encoding="utf-8"?>
<!-- Generator: Adobe Illustrator 19.1.0, SVG Export Plug-In . SVG Version: 6.00 Build 0)  -->
<svg version="1.1" id="Layer_1" xmlns="http://www.w3.org/2000/svg" xmlns:xlink="http://www.w3.org/1999/xlink" x="0px" y="0px"
	 viewBox="-581 367 59.9 60" style="enable-background:new -581 367 59.9 60;" xml:space="preserve">
<style type="text/css">
	.st0{fill:#FFFFFF;}
</style>
<g>
	<polygon class="st0" points="-566.1,388.9 -566.1,405.1 -558.2,397 	"/>
	<path class="st0" d="M-547.7,400.9c-0.1,0.1-0.3,0.3-0.4,0.4c-1,0.7-2.1,1-3.3,0.9c-1.2-0.1-2.2-0.6-3-1.4
		c-0.4-0.4-0.7-0.7-1.1-1.1l-0.2-0.2l-8,8.1c4.5,0,20.7,0,25.2,0l-7.9-8.1C-546.8,400-547.2,400.4-547.7,400.9z"/>
	<path class="st0" d="M-551.5,398.6c0.5,0.2,1.1,0.1,1.4-0.2c0.8-0.8,1.6-1.6,2.4-2.4l9.5-9.6h-25.4l11.8,12
		C-551.8,398.5-551.7,398.5-551.5,398.6z"/>
	<path class="st0" d="M-524.3,391c-2.3-10.9-11.5-19.5-22.5-21.1c-1-0.2-1.9-0.3-2.9-0.4c-0.9,0-1.8,0-2.7,0
		c-0.9,0.1-1.9,0.2-2.8,0.4c-11.9,1.8-21.3,11.3-23,23.3c-2.1,14.7,7.9,28.4,22.3,30.9c1.1,0.2,2.2,0.3,3.3,0.4c0.9,0,1.8,0,2.7,0
		c1-0.1,1.9-0.3,2.9-0.4c11.6-1.7,21.1-11,22.9-22.5c0.2-0.8,0.2-1.6,0.4-2.4c0-1.5,0-2.9,0-4.4C-523.9,393.5-524,392.3-524.3,391z
		 M-532.5,411.1l-0.5,0.1h-36.7v-28.3h37.2l0,0.7L-532.5,411.1z"/>
	<polygon class="st0" points="-536,405.1 -536,389.1 -543.9,397 	"/>
</g>
</svg>
